<?xml version="1.0" encoding="UTF-8"?>
<!DOCTYPE svg PUBLIC "-//W3C//DTD SVG 1.1//EN" "http://www.w3.org/Graphics/SVG/1.1/DTD/svg11.dtd">
<svg xmlns="http://www.w3.org/2000/svg" version="1.1" width="1024px" height="512px" style="shape-rendering:geometricPrecision; text-rendering:geometricPrecision; image-rendering:optimizeQuality; fill-rule:evenodd; clip-rule:evenodd" xmlns:xlink="http://www.w3.org/1999/xlink">
<g><path style="opacity:0.926" fill="#bd5102" d="M 176.5,140.5 C 179.85,140.335 183.183,140.502 186.5,141C 197.197,145.684 207.864,150.351 218.5,155C 237.655,159.149 256.655,163.983 275.5,169.5C 276.665,177.145 276.831,184.812 276,192.5C 270.254,188.421 264.254,184.754 258,181.5C 257.228,181.645 256.561,181.978 256,182.5C 256.531,192.468 256.531,202.468 256,212.5C 255.751,213.624 255.251,214.624 254.5,215.5C 250.422,213.586 246.755,211.086 243.5,208C 241.888,207.28 240.388,207.446 239,208.5C 240.884,215.503 242.717,222.67 244.5,230C 244.167,230.5 243.833,231 243.5,231.5C 239.472,229.151 235.806,226.317 232.5,223C 230.559,222.257 228.726,222.424 227,223.5C 229.482,228.556 231.815,233.889 234,239.5C 234.667,240.5 234.667,241.5 234,242.5C 229.9,238.571 226.066,234.571 222.5,230.5C 224.066,222.575 225.066,214.575 225.5,206.5C 219.82,205.441 214.154,204.275 208.5,203C 201.373,199.77 194.04,197.103 186.5,195C 180.822,191.159 174.822,187.826 168.5,185C 155.497,173.639 154.164,160.972 164.5,147C 168.147,144.013 172.147,141.846 176.5,140.5 Z"/></g>
<g><path style="opacity:0.924" fill="#bd5102" d="M 280.5,170.5 C 286.596,171.801 292.429,173.801 298,176.5C 299.462,176.006 300.962,175.673 302.5,175.5C 311.147,176.246 319.813,176.746 328.5,177C 342.669,181.19 348.835,190.69 347,205.5C 344.833,215.667 338.667,221.833 328.5,224C 318.833,224.667 309.167,224.667 299.5,224C 290.748,222.145 282.081,219.979 273.5,217.5C 271.95,237.084 267.783,256.084 261,274.5C 254.633,287.516 247.466,300.016 239.5,312C 227.867,320.786 216.367,320.62 205,311.5C 199.749,305.076 197.749,297.742 199,289.5C 201.545,281.407 205.378,274.073 210.5,267.5C 213.382,269.108 216.382,270.441 219.5,271.5C 221.283,269.977 221.949,267.977 221.5,265.5C 223.937,265.756 226.271,266.423 228.5,267.5C 231.184,265.858 231.684,263.858 230,261.5C 229.289,259.101 229.456,256.768 230.5,254.5C 228.633,253.203 228.3,251.703 229.5,250C 229.025,248.237 228.358,246.57 227.5,245C 228.167,244.333 228.833,244.333 229.5,245C 238.694,254.472 241.694,252.806 238.5,240C 238.625,238.373 239.125,236.873 240,235.5C 242.963,238.235 246.296,239.235 250,238.5C 250.402,237.128 250.902,235.795 251.5,234.5C 248.63,232.352 247.963,229.685 249.5,226.5C 248.617,225.452 247.95,224.285 247.5,223C 248.466,221.171 248.633,219.338 248,217.5C 251.215,220.63 254.882,221.964 259,221.5C 260.375,210.889 260.875,200.222 260.5,189.5C 261.552,189.351 262.552,189.517 263.5,190C 267.846,194.84 273.179,197.506 279.5,198C 280.485,188.917 280.818,179.751 280.5,170.5 Z"/></g>
<g><path style="opacity:0.983" fill="#2b0fa2" d="M 312.5,227.5 C 315.5,227.5 318.5,227.5 321.5,227.5C 322.378,232.087 320.878,235.42 317,237.5C 316.138,239.087 315.471,240.754 315,242.5C 314.333,261.167 314.333,279.833 315,298.5C 315.602,301.603 317.435,303.603 320.5,304.5C 321.48,307.086 321.813,309.753 321.5,312.5C 300.591,311.429 288.758,300.429 286,279.5C 283.267,262.374 287.767,247.541 299.5,235C 303.602,231.954 307.935,229.454 312.5,227.5 Z"/></g>
<g><path style="opacity:0.932" fill="#2a0fa1" d="M 325.5,227.5 C 330.519,228.338 335.519,229.338 340.5,230.5C 342.286,230.304 343.619,229.471 344.5,228C 346.473,227.505 348.473,227.338 350.5,227.5C 351.591,237.466 351.758,247.466 351,257.5C 349.419,260.553 347.086,261.22 344,259.5C 341.809,248.764 335.976,240.764 326.5,235.5C 325.52,232.914 325.187,230.247 325.5,227.5 Z"/></g>
<g><path style="opacity:0.983" fill="#2b0fa2" d="M 544.5,227.5 C 547.5,227.5 550.5,227.5 553.5,227.5C 554.378,232.087 552.878,235.42 549,237.5C 548.138,239.087 547.471,240.754 547,242.5C 546.333,261.167 546.333,279.833 547,298.5C 547.602,301.603 549.435,303.603 552.5,304.5C 553.48,307.086 553.813,309.753 553.5,312.5C 532.591,311.429 520.758,300.429 518,279.5C 515.267,262.374 519.767,247.541 531.5,235C 535.602,231.954 539.935,229.454 544.5,227.5 Z"/></g>
<g><path style="opacity:0.932" fill="#2a0fa1" d="M 557.5,227.5 C 562.519,228.338 567.519,229.338 572.5,230.5C 574.286,230.304 575.619,229.471 576.5,228C 578.473,227.505 580.473,227.338 582.5,227.5C 583.591,237.466 583.758,247.466 583,257.5C 581.419,260.553 579.086,261.22 576,259.5C 573.809,248.764 567.976,240.764 558.5,235.5C 557.52,232.914 557.187,230.247 557.5,227.5 Z"/></g>
<g><path style="opacity:0.997" fill="#2a10a1" d="M 359.5,229.5 C 370.5,229.5 381.5,229.5 392.5,229.5C 392.333,253.502 392.5,277.502 393,301.5C 394.491,303.004 396.324,303.837 398.5,304C 399.833,306 399.833,308 398.5,310C 385.487,310.833 372.487,310.666 359.5,309.5C 358.416,305.689 359.916,303.355 364,302.5C 364.667,280.833 364.667,259.167 364,237.5C 359.597,236.354 358.097,233.687 359.5,229.5 Z"/></g>
<g><path style="opacity:0.985" fill="#2b0fa2" d="M 396.5,229.5 C 408.381,227.107 418.548,230.107 427,238.5C 433.697,253.437 429.53,264.104 414.5,270.5C 419.869,271.703 424.369,274.37 428,278.5C 429.048,285.115 429.881,291.782 430.5,298.5C 437.877,294.709 440.043,296.709 437,304.5C 429.766,312.596 420.932,314.762 410.5,311C 407.255,309.019 405.089,306.186 404,302.5C 402.81,294.895 402.143,287.229 402,279.5C 401.125,276.785 399.292,275.452 396.5,275.5C 396.5,272.833 396.5,270.167 396.5,267.5C 398.993,267.671 400.826,266.671 402,264.5C 402.667,256.5 402.667,248.5 402,240.5C 400.622,238.787 398.955,237.453 397,236.5C 396.503,234.19 396.337,231.857 396.5,229.5 Z"/></g>
<g><path style="opacity:0.988" fill="#2b0fa2" d="M 467.5,229.5 C 476.085,229.183 484.585,229.517 493,230.5C 498.824,254.13 504.491,277.797 510,301.5C 512.705,302.755 514.538,304.755 515.5,307.5C 515.392,308.442 515.059,309.275 514.5,310C 502.167,310.667 489.833,310.667 477.5,310C 476.011,306.798 476.844,304.298 480,302.5C 480.61,298.764 480.277,295.097 479,291.5C 473.593,290.527 468.093,290.193 462.5,290.5C 462.993,288.194 463.326,285.861 463.5,283.5C 468.179,283.666 472.845,283.499 477.5,283C 473.751,268.261 470.251,253.428 467,238.5C 466.505,235.469 466.671,232.469 467.5,229.5 Z"/></g>
<g><path style="opacity:0.988" fill="#2b0fa1" d="M 593.5,229.5 C 606.08,229.178 618.58,229.511 631,230.5C 631.798,232.259 631.631,233.926 630.5,235.5C 628.742,236.128 627.242,237.128 626,238.5C 625.333,259.5 625.333,280.5 626,301.5C 627.667,302.833 629.333,304.167 631,305.5C 631.72,307.112 631.554,308.612 630.5,310C 617.924,310.821 605.424,310.655 593,309.5C 592.202,307.741 592.369,306.074 593.5,304.5C 595.258,303.872 596.758,302.872 598,301.5C 598.667,280.5 598.667,259.5 598,238.5C 596.758,237.128 595.258,236.128 593.5,235.5C 592.306,233.484 592.306,231.484 593.5,229.5 Z"/></g>
<g><path style="opacity:0.972" fill="#2b0fa2" d="M 640.5,229.5 C 650.083,229.182 659.583,229.515 669,230.5C 669.667,232.167 669.667,233.833 669,235.5C 660.442,239.223 653.942,245.223 649.5,253.5C 655.944,269.389 662.111,285.389 668,301.5C 669.667,302.833 671.333,304.167 673,305.5C 673.72,307.112 673.554,308.612 672.5,310C 659.591,310.822 646.758,310.655 634,309.5C 633.833,308.667 633.667,307.833 633.5,307C 635.02,304.973 636.353,302.806 637.5,300.5C 634.496,291.156 631.496,281.822 628.5,272.5C 628.899,270.803 629.399,269.137 630,267.5C 635.723,260.109 641.056,252.443 646,244.5C 647.249,239.671 645.416,236.671 640.5,235.5C 639.306,233.484 639.306,231.484 640.5,229.5 Z"/></g>
<g><path style="opacity:0.486" fill="#bd5102" d="M 220.5,242.5 C 223.807,247.981 225.307,253.981 225,260.5C 222.626,258.461 220.626,256.128 219,253.5C 218.86,249.766 219.36,246.099 220.5,242.5 Z"/></g>
<g><path style="opacity:0.96" fill="#2b0fa2" d="M 463.5,244.5 C 464.117,244.611 464.617,244.944 465,245.5C 465.991,249.132 466.825,252.799 467.5,256.5C 463.937,270.356 460.271,284.189 456.5,298C 457.68,301.846 460.18,304.346 464,305.5C 464.667,306.833 464.667,308.167 464,309.5C 456.246,310.647 448.413,310.814 440.5,310C 439.24,308.186 439.24,306.353 440.5,304.5C 444.797,303.369 447.631,300.702 449,296.5C 454.149,279.237 458.982,261.904 463.5,244.5 Z"/></g>
<g><path style="opacity:0.117" fill="#bd5102" d="M 214.5,259.5 C 216.099,260.799 216.599,262.465 216,264.5C 213.676,263.225 213.176,261.558 214.5,259.5 Z"/></g>
<g><path style="opacity:0.95" fill="#2a0fa1" d="M 344.5,286.5 C 346.604,286.201 348.604,286.534 350.5,287.5C 350.342,298.598 345.009,306.431 334.5,311C 331.568,311.953 328.568,312.453 325.5,312.5C 325.5,309.833 325.5,307.167 325.5,304.5C 335.718,302.615 342.052,296.615 344.5,286.5 Z"/></g>
<g><path style="opacity:0.95" fill="#2a0fa1" d="M 576.5,286.5 C 578.604,286.201 580.604,286.534 582.5,287.5C 582.342,298.598 577.009,306.431 566.5,311C 563.568,311.953 560.568,312.453 557.5,312.5C 557.5,309.833 557.5,307.167 557.5,304.5C 567.718,302.615 574.052,296.615 576.5,286.5 Z"/></g>
<g><path style="opacity:0.805" fill="#760811" d="M 383.5,332.5 C 386.518,332.335 389.518,332.502 392.5,333C 394.673,334.865 395.007,337.031 393.5,339.5C 396.122,342.703 396.122,345.87 393.5,349C 390.183,349.498 386.85,349.665 383.5,349.5C 383.5,343.833 383.5,338.167 383.5,332.5 Z M 387.5,335.5 C 392.833,336.5 392.833,337.5 387.5,338.5C 387.5,337.5 387.5,336.5 387.5,335.5 Z M 387.5,342.5 C 389.665,342.116 391.332,342.783 392.5,344.5C 391.332,346.217 389.665,346.884 387.5,346.5C 387.5,345.167 387.5,343.833 387.5,342.5 Z"/></g>
<g><path style="opacity:0.803" fill="#780711" d="M 415.5,332.5 C 416.833,332.5 418.167,332.5 419.5,332.5C 421.282,344.863 423.449,345.196 426,333.5C 427.011,332.663 428.178,332.33 429.5,332.5C 427.635,338.097 425.968,343.763 424.5,349.5C 423.178,349.67 422.011,349.337 421,348.5C 418.859,343.244 417.026,337.91 415.5,332.5 Z"/></g>
<g><path style="opacity:0.785" fill="#780711" d="M 452.5,333.5 C 453.5,333.5 454.5,333.5 455.5,333.5C 455.5,334.5 455.5,335.5 455.5,336.5C 460.833,337.167 460.833,337.833 455.5,338.5C 455.336,341.187 455.503,343.854 456,346.5C 457,347.833 458,347.833 459,346.5C 459.483,347.448 459.649,348.448 459.5,349.5C 457.208,349.756 455.041,349.423 453,348.5C 452.824,345.118 452.324,341.785 451.5,338.5C 450.033,338.723 448.533,339.056 447,339.5C 445.801,342.726 445.301,346.059 445.5,349.5C 444.5,349.5 443.5,349.5 442.5,349.5C 442.5,345.167 442.5,340.833 442.5,336.5C 445.674,336.998 449.007,336.998 452.5,336.5C 452.5,335.5 452.5,334.5 452.5,333.5 Z"/></g>
<g><path style="opacity:0.781" fill="#780711" d="M 396.5,336.5 C 397.822,336.33 398.989,336.663 400,337.5C 401.667,345.5 403.333,345.5 405,337.5C 406.183,336.269 407.349,336.269 408.5,337.5C 406.765,342.538 404.932,347.538 403,352.5C 401.445,354.515 399.611,354.848 397.5,353.5C 399.272,352.73 400.272,351.397 400.5,349.5C 399.156,345.137 397.823,340.804 396.5,336.5 Z"/></g>
<g><path style="opacity:0.763" fill="#780711" d="M 431.5,336.5 C 437.345,334.956 440.678,337.123 441.5,343C 439.771,349.73 435.938,351.23 430,347.5C 427.842,343.461 428.342,339.794 431.5,336.5 Z M 434.5,338.5 C 437.183,340.041 438.016,342.374 437,345.5C 433.827,348.329 432.327,347.495 432.5,343C 432.759,341.213 433.425,339.713 434.5,338.5 Z"/></g>
<g><path style="opacity:0.727" fill="#780711" d="M 461.5,336.5 C 464.356,336.928 467.356,337.095 470.5,337C 469.874,337.75 469.374,338.584 469,339.5C 468,338.167 467,338.167 466,339.5C 464.801,342.726 464.301,346.059 464.5,349.5C 463.5,349.5 462.5,349.5 461.5,349.5C 461.5,345.167 461.5,340.833 461.5,336.5 Z"/></g>
<g><path style="opacity:0.763" fill="#780711" d="M 472.5,336.5 C 478.345,334.956 481.678,337.123 482.5,343C 480.771,349.73 476.938,351.23 471,347.5C 468.842,343.461 469.342,339.794 472.5,336.5 Z M 475.5,338.5 C 478.183,340.041 479.016,342.374 478,345.5C 474.827,348.329 473.327,347.495 473.5,343C 473.759,341.213 474.425,339.713 475.5,338.5 Z"/></g>
<g><path style="opacity:0.753" fill="#770811" d="M 483.5,336.5 C 486.898,336.18 490.232,336.513 493.5,337.5C 494.433,341.429 494.766,345.429 494.5,349.5C 493.5,349.5 492.5,349.5 491.5,349.5C 491.665,346.482 491.498,343.482 491,340.5C 489.846,338.043 488.512,338.043 487,340.5C 486.502,343.482 486.335,346.482 486.5,349.5C 485.5,349.5 484.5,349.5 483.5,349.5C 483.5,345.167 483.5,340.833 483.5,336.5 Z"/></g>
</svg>
